HIERARCHY
ROOT Hips
{
	OFFSET 0.00 0.00 0.00
	CHANNELS 6 Xposition Yposition Zposition Xrotation Yrotation Zrotation
	JOINT Spine
	{
		OFFSET 0.00000 7.06766 0.00000
		CHANNELS 3 Xrotation Yrotation Zrotation
		JOINT Head
		{
			OFFSET 0.00000 15.03989 0.00000
			CHANNELS 3 Xrotation Yrotation Zrotation
			End Site
			{
				OFFSET 0.00000 4.52755 0.00000
			}
		}
		JOINT LeftShoulder
		{
			OFFSET 0.00000 10.53037 0.00000
			CHANNELS 3 Xrotation Yrotation Zrotation
			JOINT LeftArm
			{
				OFFSET 7.02886 0.00000 0.00000
				CHANNELS 3 Xrotation Yrotation Zrotation
				JOINT LeftForeArm
				{
					OFFSET 10.79770 0.00000 0.00000
					CHANNELS 3 Yrotation Zrotation Xrotation
					JOINT LeftHand
					{
						OFFSET 7.90744 0.00000 0.00000
						CHANNELS 3 Xrotation Yrotation Zrotation
						JOINT LeftHandThumb1
						{
							OFFSET 0.00000 0.00000 0.00000
							CHANNELS 3 Xrotation Zrotation Yrotation
							End Site
							{
								OFFSET 0.00000 0.00000 3.93700
							}
						}
						End Site
						{
							OFFSET 3.93700 0.00000 0.00000
						}
					}
				}
			}
		}
		JOINT RightShoulder
		{
			OFFSET 0.00000 10.53037 0.00000
			CHANNELS 3 Xrotation Yrotation Zrotation
			JOINT RightArm
			{
				OFFSET -7.02886 0.00000 0.00000
				CHANNELS 3 Xrotation Yrotation Zrotation
				JOINT RightForeArm
				{
					OFFSET -10.79770 0.00000 0.00000
					CHANNELS 3 Yrotation Zrotation Xrotation
					JOINT RightHand
					{
						OFFSET -7.90744 0.00000 0.00000
						CHANNELS 3 Xrotation Yrotation Zrotation
						JOINT RightHandThumb1
						{
							OFFSET 0.00000 0.00000 0.00000
							CHANNELS 3 Xrotation Zrotation Yrotation
							End Site
							{
								OFFSET 0.00000 0.00000 3.93700
							}
						}
						End Site
						{
							OFFSET -3.93700 0.00000 0.00000
						}
					}
				}
			}
		}
	}
	JOINT LeftUpLeg
	{
		OFFSET 4.01300 0.00000 0.00000
		CHANNELS 3 Xrotation Yrotation Zrotation
		JOINT LeftLeg
		{
			OFFSET 0.00000 -16.89976 0.00000
			CHANNELS 3 Xrotation Yrotation Zrotation
			JOINT LeftFoot
			{
				OFFSET 0.00000 -17.38918 0.00000
				CHANNELS 3 Xrotation Yrotation Zrotation
				JOINT LeftToeBase
				{
					OFFSET 0.00000 -1.27456 4.75673
					CHANNELS 3 Xrotation Yrotation Zrotation
					End Site
					{
						OFFSET 0.00000 0.00000 2.95275
					}
				}
			}
		}
	}
	JOINT RightUpLeg
	{
		OFFSET -4.01300 0.00000 0.00000
		CHANNELS 3 Xrotation Yrotation Zrotation
		JOINT RightLeg
		{
			OFFSET 0.00000 -16.89976 0.00000
			CHANNELS 3 Xrotation Yrotation Zrotation
			JOINT RightFoot
			{
				OFFSET 0.00000 -17.38918 0.00000
				CHANNELS 3 Xrotation Yrotation Zrotation
				JOINT RightToeBase
				{
					OFFSET 0.00000 -1.27456 4.75673
					CHANNELS 3 Xrotation Yrotation Zrotation
					End Site
					{
						OFFSET 0.00000 0.00000 2.95275
					}
				}
			}
		}
	}
}
MOTION
Frames: 15
Frame Time: 0.008333
 18.7773 35.5389 -24.2806 171.8424 -0.9027 179.3581 -17.3342 -0.7099 -0.6809 7.1829 -1.5843 2.4743 -33.2088 2.4570 15.2683 5.6951 -9.8713 -7.7190 0.9816 0.0000 12.3329 1.1125 7.4003 -8.5742 33.1476 -0.0000 26.2537 8.0754 -12.9653 -7.0530 -36.0268 5.4597 10.8696 6.0412 -0.0000 35.2992 0.8273 -6.6940 7.0619 32.8623 0.0000 -24.3270 0.9840 8.5898 -0.5017 -6.5040 -0.0000 -0.0000 -18.5885 29.9121 4.6703 24.6175 -0.0000 0.0000 0.1650 -7.3220 0.7785 -4.0740 0.0000 -0.0000 -18.3265 -27.4981 -2.4349 23.5354 0.0000 -0.0000
 18.7759 35.5389 -24.2802 171.8474 -0.9009 179.3658 -17.3357 -0.6895 -0.6918 7.2060 -1.5995 2.4837 -33.1856 2.4480 15.2637 5.6860 -9.8890 -7.7220 0.9793 0.0000 12.3331 1.1201 7.4529 -8.5723 33.1476 -0.0000 26.2537 8.1980 -13.0375 -7.0339 -36.1515 5.5251 10.9221 6.0076 -0.0000 35.2743 0.8269 -6.7591 6.9918 32.8623 0.0000 -24.3270 0.9900 8.5958 -0.5110 -6.5057 -0.0000 -0.0000 -18.5838 29.9187 4.6506 24.5941 0.0000 0.0000 0.1653 -7.3275 0.7673 -4.0667 0.0000 0.0000 -18.3355 -27.4892 -2.4271 23.5684 0.0000 -0.0000
 18.7747 35.5393 -24.2800 171.8477 -0.8953 179.3713 -17.3406 -0.6871 -0.6960 7.2230 -1.6125 2.4736 -33.1796 2.4593 15.2631 5.6939 -9.9086 -7.7127 0.9826 0.0000 12.3235 1.1200 7.4494 -8.5750 33.1476 -0.0000 26.2537 8.1855 -13.0395 -7.0399 -36.1507 5.5332 10.9236 6.0202 -0.0000 35.2981 0.8344 -6.8003 7.0120 32.8623 0.0000 -24.3270 0.9862 8.6230 -0.5208 -6.4898 -0.0000 -0.0000 -18.5621 29.9240 4.6012 24.5182 0.0000 0.0000 0.1630 -7.3214 0.7614 -4.0674 -0.0000 0.0000 -18.3357 -27.4932 -2.4446 23.6177 -0.0000 -0.0000
 18.7747 35.5392 -24.2795 171.8528 -0.8945 179.3672 -17.3388 -0.6874 -0.6917 7.2387 -1.6208 2.4716 -33.1615 2.4624 15.2557 5.6920 -9.9132 -7.7017 0.9757 0.0000 12.3258 1.1179 7.4378 -8.5721 33.1476 -0.0000 26.2537 8.1935 -13.0430 -7.0398 -36.1537 5.5460 10.9164 6.0153 -0.0000 35.3200 0.8298 -6.7827 6.9917 32.8623 0.0000 -24.3270 0.9916 8.6114 -0.5145 -6.4965 0.0000 0.0000 -18.5821 29.9061 4.6456 24.6235 -0.0000 0.0000 0.1637 -7.3210 0.7658 -4.0559 -0.0000 -0.0000 -18.3086 -27.5329 -2.3714 23.4185 -0.0000 -0.0000
 18.7739 35.5390 -24.2792 171.8544 -0.8951 179.3711 -17.3370 -0.6778 -0.7006 7.2379 -1.6391 2.4779 -33.1705 2.4510 15.2709 5.6965 -9.9173 -7.7195 0.9636 0.0000 12.3437 1.1111 7.4453 -8.5129 33.1476 -0.0000 26.2537 8.1098 -12.9972 -7.0455 -36.0107 5.4990 10.8503 6.0624 -0.0000 35.2830 0.8356 -6.7772 7.0458 32.8623 0.0000 -24.3270 0.9895 8.6297 -0.5208 -6.4890 0.0000 -0.0000 -18.5852 29.8902 4.6430 24.6312 0.0000 -0.0000 0.1670 -7.3195 0.7602 -4.0659 -0.0000 0.0000 -18.3441 -27.4944 -2.4523 23.6300 -0.0000 0.0000
 18.7733 35.5390 -24.2786 171.8565 -0.8926 179.3745 -17.3343 -0.6837 -0.7071 7.2473 -1.5853 2.4640 -33.1533 2.4695 15.2806 5.7083 -9.9356 -7.7154 0.9571 0.0000 12.3144 1.1099 7.4546 -8.4933 33.1476 -0.0000 26.2537 8.1124 -13.0018 -7.0537 -36.0515 5.4789 10.8571 6.1184 -0.0000 35.4005 0.8158 -6.5771 7.0867 32.8623 0.0000 -24.3270 0.9958 8.6155 -0.5254 -6.4930 -0.0000 0.0000 -18.5694 29.9289 4.6198 24.5439 0.0000 0.0000 0.1665 -7.3238 0.7563 -4.0637 0.0000 0.0000 -18.3470 -27.4923 -2.4504 23.6128 0.0000 -0.0000
 18.7732 35.5390 -24.2782 171.8631 -0.8910 179.3717 -17.3324 -0.6814 -0.7038 7.2632 -1.5793 2.4566 -33.1524 2.4615 15.2723 5.6969 -9.9314 -7.7093 0.9528 0.0000 12.3389 1.1115 7.4631 -8.4960 33.1476 -0.0000 26.2537 8.0951 -12.9771 -7.0693 -36.0443 5.4352 10.8432 6.1484 -0.0000 35.3803 0.8190 -6.6110 7.0782 32.8623 0.0000 -24.3270 0.9998 8.6246 -0.5230 -6.4950 -0.0000 0.0000 -18.5813 29.9057 4.6542 24.5933 -0.0000 0.0000 0.1688 -7.3086 0.7562 -4.0548 0.0000 0.0000 -18.3376 -27.4941 -2.4496 23.5794 0.0000 -0.0000
 18.7727 35.5391 -24.2776 171.8658 -0.8924 179.3731 -17.3285 -0.6905 -0.7086 7.2628 -1.5779 2.4519 -33.1710 2.4634 15.2790 5.7033 -9.9377 -7.7061 0.9568 0.0000 12.3509 1.1112 7.4667 -8.4894 33.1476 -0.0000 26.2537 8.1028 -12.9810 -7.0670 -36.0531 5.4516 10.8379 6.1348 -0.0000 35.3916 0.8168 -6.5868 7.0851 32.8623 0.0000 -24.3270 0.9996 8.6054 -0.5236 -6.4864 -0.0000 -0.0000 -18.5723 29.9326 4.6196 24.4931 0.0000 -0.0000 0.1697 -7.3198 0.7549 -4.0530 -0.0000 0.0000 -18.3446 -27.4759 -2.4608 23.6060 -0.0000 0.0000
 18.7720 35.5393 -24.2766 171.8718 -0.8888 179.3763 -17.3241 -0.6862 -0.7073 7.2679 -1.5815 2.4301 -33.1722 2.4547 15.2609 5.7201 -9.9250 -7.6838 0.9471 0.0000 12.3455 1.1106 7.4589 -8.4935 33.1476 -0.0000 26.2537 8.1074 -12.9620 -7.0791 -36.0337 5.4245 10.8231 6.1491 -0.0000 35.3358 0.8330 -6.7318 7.0704 32.8623 0.0000 -24.3270 1.0057 8.6138 -0.5284 -6.4898 -0.0000 0.0000 -18.5904 29.9134 4.6642 24.6298 0.0000 -0.0000 0.1732 -7.3049 0.7508 -4.0542 0.0000 -0.0000 -18.3444 -27.4958 -2.4498 23.5786 0.0000 -0.0000
 18.7720 35.5393 -24.2762 171.8798 -0.8890 179.3751 -17.3168 -0.6798 -0.7071 7.2654 -1.5804 2.4268 -33.1731 2.4448 15.2560 5.7002 -9.9254 -7.6836 0.9551 0.0000 12.3759 1.1082 7.4478 -8.4879 33.1476 -0.0000 26.2537 8.1335 -12.9811 -7.0706 -36.0660 5.4453 10.8216 6.1363 -0.0000 35.3781 0.8412 -6.7835 7.0860 32.8623 0.0000 -24.3270 1.0136 8.6034 -0.5262 -6.4923 -0.0000 0.0000 -18.5875 29.9197 4.6532 24.6457 -0.0000 0.0000 0.1794 -7.3053 0.7510 -4.0514 -0.0000 -0.0000 -18.3402 -27.4941 -2.4386 23.5634 -0.0000 -0.0000
 18.7717 35.5393 -24.2755 171.8838 -0.8785 179.3785 -17.3136 -0.6765 -0.7106 7.2689 -1.5747 2.4223 -33.1781 2.4499 15.2660 5.7157 -9.9385 -7.6810 0.9687 0.0000 12.3494 1.1077 7.4521 -8.4793 33.1476 -0.0000 26.2537 8.1054 -12.9688 -7.0861 -36.0450 5.4321 10.8219 6.1445 -0.0000 35.3608 0.8387 -6.7616 7.0874 32.8623 0.0000 -24.3270 1.0151 8.6319 -0.5299 -6.4904 -0.0000 0.0000 -18.5778 29.9135 4.6525 24.3854 0.0000 0.0000 0.1801 -7.2825 0.7468 -4.0511 0.0000 0.0000 -18.3498 -27.5038 -2.4491 23.5816 -0.0000 -0.0000
 18.7711 35.5395 -24.2748 171.8925 -0.8774 179.3791 -17.3055 -0.6743 -0.7134 7.2718 -1.5656 2.4256 -33.1778 2.4388 15.2644 5.7085 -9.9279 -7.6783 0.9686 0.0000 12.3642 1.1088 7.4600 -8.4789 33.1476 -0.0000 26.2537 8.1093 -12.9685 -7.0836 -36.0540 5.4333 10.8108 6.1414 -0.0000 35.3512 0.8405 -6.7614 7.1025 32.8623 0.0000 -24.3270 1.0230 8.6182 -0.5313 -6.4861 -0.0000 0.0000 -18.5889 29.9162 4.6608 24.6194 -0.0000 0.0000 0.1869 -7.2902 0.7455 -4.0507 -0.0000 -0.0000 -18.3434 -27.5010 -2.4543 23.6091 0.0000 0.0000
 18.7707 35.5398 -24.2740 171.8952 -0.8709 179.3818 -17.3042 -0.6663 -0.7173 7.2717 -1.5553 2.4224 -33.1886 2.4220 15.2697 5.7037 -9.9109 -7.6786 0.9710 0.0000 12.3995 1.1072 7.4247 -8.5062 33.1476 -0.0000 26.2537 8.0813 -12.9662 -7.0903 -36.0076 5.4366 10.7973 6.1413 -0.0000 35.3131 0.8480 -6.7934 7.1322 32.8623 0.0000 -24.3270 1.0257 8.6182 -0.5347 -6.4877 0.0000 0.0000 -18.5807 29.9265 4.6505 24.6059 -0.0000 0.0000 0.1889 -7.2749 0.7424 -4.0549 0.0000 0.0000 -18.3441 -27.5039 -2.4681 23.6236 -0.0000 0.0000
 18.7715 35.5400 -24.2730 171.9033 -0.8760 179.3765 -17.2989 -0.6690 -0.7175 7.2781 -1.5500 2.4265 -33.1897 2.4107 15.2633 5.7198 -9.9134 -7.6648 0.9829 0.0000 12.3908 1.1046 7.4083 -8.5049 33.1476 -0.0000 26.2537 8.2158 -13.0206 -7.0800 -36.1096 5.4979 10.8507 6.0803 -0.0000 35.2329 0.8680 -7.0512 7.0359 32.8623 0.0000 -24.3270 1.0231 8.6336 -0.5276 -6.4741 0.0000 0.0000 -18.5838 29.9027 4.6493 24.5713 -0.0000 0.0000 0.1904 -7.3013 0.7497 -4.0418 0.0000 0.0000 -18.3398 -27.4926 -2.4553 23.5877 0.0000 -0.0000
 18.7703 35.5401 -24.2715 171.9024 -0.8715 179.3783 -17.3016 -0.6682 -0.7203 7.2698 -1.5486 2.4328 -33.1818 2.4109 15.2690 5.6965 -9.9096 -7.6653 0.9840 0.0000 12.3847 1.1076 7.4242 -8.5097 33.1476 -0.0000 26.2537 8.2094 -13.0145 -7.0733 -36.1398 5.4967 10.8333 6.0771 -0.0000 35.2604 0.8659 -7.0280 7.0418 32.8623 0.0000 -24.3270 1.0210 8.6341 -0.5309 -6.4761 0.0000 -0.0000 -18.5799 29.9101 4.6609 24.5851 0.0000 0.0000 0.1831 -7.3034 0.7457 -4.0370 0.0000 -0.0000 -18.3445 -27.4841 -2.4470 23.6085 -0.0000 0.0000
